<svg width="43" height="43" viewBox="0 0 43 43" fill="none" xmlns="http://www.w3.org/2000/svg">
<path d="M43 20.3895C43 32.8566 32.8459 43 20.3644 43C11.7199 43 3.9528 38.1933 0.0950829 30.4551C-0.0778806 30.1068 -0.0108685 29.688 0.263519 29.414C0.537906 29.1399 0.957184 29.0693 1.30492 29.2403C4.17738 30.6523 7.26537 31.3678 10.481 31.3678C21.9646 31.3678 31.3064 22.0366 31.3064 10.5663C31.3064 7.31903 30.5738 4.20474 29.1303 1.30753C28.9574 0.958385 29.0244 0.540493 29.2988 0.266418C29.5731 -0.00855637 29.9924 -0.0782089 30.3402 0.0927467C38.148 3.92795 43 11.706 43 20.3895ZM3.02912 31.9213C6.86511 37.6976 13.2955 41.1909 20.3644 41.1909C31.847 41.1909 41.1889 31.8598 41.1889 20.3895C41.1889 13.2853 37.659 6.83873 31.8226 3.01619C32.6829 5.42947 33.1175 7.95853 33.1175 10.5654C33.1175 23.0325 22.9625 33.1759 10.481 33.1759C7.90923 33.1759 5.41348 32.7544 3.02912 31.9213Z" fill="white" stroke="white" stroke-width="0.002"/>
</svg>
