<svg width="43" height="43" viewBox="0 0 43 43" fill="none" xmlns="http://www.w3.org/2000/svg">
<path d="M21.36 32.64C15.12 32.64 10.08 27.6 10.08 21.36C10.08 15.12 15.12 10.08 21.36 10.08C27.6 10.08 32.64 15.12 32.64 21.36C32.64 27.6 27.6 32.64 21.36 32.64ZM21.36 13.44C16.96 13.44 13.44 16.96 13.44 21.36C13.44 25.76 16.96 29.28 21.36 29.28C25.76 29.28 29.28 25.76 29.28 21.36C29.28 16.96 25.76 13.44 21.36 13.44ZM21.36 7.44C20.4 7.44 19.68 6.72 19.68 5.76V1.68C19.68 0.719999 20.4 0 21.36 0C22.32 0 23.04 0.719999 23.04 1.68V5.76C23.04 6.72 22.32 7.44 21.36 7.44ZM32.4 12C32 12 31.52 11.84 31.2 11.52C30.56 10.88 30.56 9.84 31.2 9.12L34.08 6.24C34.72 5.6 35.76 5.6 36.48 6.24C37.12 6.88 37.12 7.92 36.48 8.64L33.6 11.52C33.2 11.84 32.8 12 32.4 12ZM36.96 23.04C36 23.04 35.28 22.32 35.28 21.36C35.28 20.4 36 19.68 36.96 19.68H41.04C42 19.68 42.72 20.4 42.72 21.36C42.72 22.32 42 23.04 41.04 23.04H36.96ZM35.28 36.96C34.88 36.96 34.4 36.8 34.08 36.48L31.2 33.52C30.56 32.88 30.56 31.84 31.2 31.12C31.84 30.48 32.88 30.48 33.6 31.12L36.48 34C37.12 34.64 37.12 35.68 36.48 36.4C36.16 36.8 35.68 36.96 35.28 36.96ZM21.36 42.72C20.4 42.72 19.68 42 19.68 41.04V36.96C19.68 36 20.4 35.28 21.36 35.28C22.32 35.28 23.04 36 23.04 36.96V41.04C23.04 42 22.32 42.72 21.36 42.72ZM7.44 36.96C7.04 36.96 6.56 36.8 6.24 36.48C5.6 35.84 5.6 34.8 6.24 34.08L9.12 31.2C9.76 30.56 10.8 30.56 11.52 31.2C12.24 31.84 12.16 32.88 11.52 33.6L8.64 36.48C8.32 36.8 7.84 36.96 7.44 36.96ZM1.68 23.04C0.72 23.04 0 22.32 0 21.36C0 20.4 0.72 19.68 1.68 19.68H5.76C6.72 19.68 7.44 20.4 7.44 21.36C7.44 22.32 6.72 23.04 5.76 23.04H1.68ZM10.32 12C9.92 12 9.44 11.84 9.12 11.52L6.24 8.64C5.6 8 5.6 6.96 6.24 6.24C6.88 5.6 7.92 5.6 8.64 6.24L11.52 9.12C12.16 9.76 12.16 10.8 11.52 11.52C11.2 11.84 10.8 12 10.32 12Z" fill="#F5F0F0" stroke="#F5F0F0" stroke-width="0.00064"/>
</svg>
