<svg width="55" height="30" viewBox="0 0 55 30" fill="none" xmlns="http://www.w3.org/2000/svg">
<path d="M41.1863 23.1552V7.09305C41.1863 4.1361 38.7892 1.73901 35.8322 1.73901L6.38503 1.73901C3.42807 1.73901 1.03099 4.1361 1.03099 7.09305V23.1552C1.03099 26.1121 3.42807 28.5092 6.38503 28.5092L35.8322 28.5092C38.7892 28.5092 41.1863 26.1121 41.1863 23.1552Z" stroke="#F5F0F0" stroke-width="2.4"/>
<path d="M14.416 21.0135V9.23463C14.416 8.05185 13.4572 7.09302 12.2744 7.09302H8.52657C7.34379 7.09302 6.38496 8.05185 6.38496 9.23463V21.0135C6.38496 22.1963 7.34379 23.1551 8.52657 23.1551H12.2744C13.4572 23.1551 14.416 22.1963 14.416 21.0135Z" fill="#F5F0F0"/>
<path fill-rule="evenodd" clip-rule="evenodd" d="M53.7872 7.87709C53.0031 7.09302 51.7412 7.09302 49.2173 7.09302V23.1551C51.7412 23.1551 53.0031 23.1551 53.7872 22.371C54.5713 21.5869 54.5713 20.325 54.5713 17.8011V12.4471C54.5713 9.92316 54.5713 8.66119 53.7872 7.87709Z" fill="#F5F0F0"/>
</svg>
