<svg width="103" height="113" viewBox="0 0 103 113" fill="none" xmlns="http://www.w3.org/2000/svg">
<g clip-path="url(#clip0_3_90)">
<path d="M95.2408 30.2168L90.0923 1.96735C89.8849 0.832917 88.8099 0.00195312 87.5501 0.00195312H15.4505C14.1906 0.00195312 13.1155 0.832917 12.9117 1.96735L7.75909 30.2168C7.63451 30.8997 7.84576 31.5962 8.33633 32.1239C8.82303 32.655 9.54343 32.9584 10.3015 32.9584H92.7025C93.4565 32.9584 94.1769 32.655 94.6636 32.1239C95.1539 31.5962 95.3652 30.8997 95.2408 30.2168Z" fill="#37BC9B"/>
<path d="M94.6409 38.4689C94.1506 37.9586 93.4413 37.6655 92.7025 37.6655H10.3015C9.55837 37.6655 8.85318 37.9586 8.36285 38.4689C7.87252 38.9792 7.64993 39.6587 7.74795 40.3312L18.0494 110.955C18.2191 112.124 19.3094 113 20.5993 113H82.4008C83.691 113 84.781 112.124 84.9546 110.955L95.2519 40.3312C95.3502 39.6587 95.1276 38.9794 94.6409 38.4689Z" fill="#E6E9ED"/>
<path d="M100.428 28.2512H2.57645C1.15424 28.2512 0 29.3031 0 30.6031V40.0207C0 41.3209 1.15424 42.3758 2.57645 42.3758H100.428C101.846 42.3758 103 41.3206 103 40.0207V30.6031C103 29.3031 101.846 28.2512 100.428 28.2512Z" fill="#48CFAD"/>
<path d="M68.7648 68.8805C68.6366 68.6253 68.4669 68.3907 68.2365 68.1806C67.2332 67.2634 65.6036 67.2634 64.5966 68.1806C63.8234 68.8873 63.6498 69.9253 64.0573 70.7876C66.4524 75.1912 65.6415 80.6914 61.6356 84.3538C58.4785 87.24 54.0764 88.3091 49.995 87.5607C50.6514 86.8918 50.8549 85.9021 50.4249 85.0297C49.8441 83.8433 48.32 83.3123 47.0223 83.8469L42.3224 85.7745C41.1872 86.2435 40.6025 87.3676 40.8666 88.4367C40.9042 88.5886 40.9571 88.7402 41.0288 88.8885L43.1371 93.1817C43.7257 94.368 45.2496 94.8988 46.547 94.3645C47.5805 93.9403 48.1539 92.9681 48.0484 91.9921C54.0161 93.3852 60.6096 91.9506 65.2794 87.6848C70.8432 82.5948 71.9974 75.0153 68.7648 68.8805Z" fill="#434A54"/>
<path d="M41.3644 66.3115C44.5217 63.4218 48.9238 62.3562 53.0053 63.1011C52.3488 63.7736 52.1453 64.7599 52.5753 65.6357C53.1561 66.8218 54.6839 67.3528 55.9779 66.8182L60.6779 64.8873C61.9753 64.3563 62.5561 62.9629 61.9714 61.7766L59.8631 57.4797C59.2745 56.2971 57.7506 55.7659 56.4532 56.3004C55.4197 56.7246 54.8463 57.6935 54.9518 58.6728C48.9841 57.2762 42.3907 58.7108 37.7209 62.9801C32.157 68.0666 31.0028 75.6494 34.2352 81.7842C34.3634 82.036 34.537 82.274 34.7634 82.4808C35.7668 83.4016 37.3964 83.4016 38.4036 82.4808C39.1769 81.7771 39.3504 80.7358 38.9429 79.8771C36.5473 75.4704 37.3585 69.9737 41.3644 66.3115Z" fill="#434A54"/>
<path d="M74.6741 0H28.3235V14.1246H74.6741V0Z" fill="#E6E9ED"/>
<path opacity="0.1" d="M25.7519 18.8336H77.2517C78.6701 18.8336 79.8243 17.7784 79.8243 16.4782V0.00195312H74.6755V14.1266H28.3245V0.00195312H23.1755V16.4784C23.1755 17.7784 24.3297 18.8336 25.7519 18.8336Z" fill="#080808"/>
</g>
<defs>
<clipPath id="clip0_3_90">
<rect width="103" height="113" fill="white"/>
</clipPath>
</defs>
</svg>
